<svg width="216" height="134" viewBox="0 0 216 134" xmlns="http://www.w3.org/2000/svg"><g fill="none" fill-rule="evenodd"><path d="M86.3 29.8a35 35 0 001.1 4.9c.6 1.7 2.2 3.9 1.1 5-1 1-2.7 1.6-5.5 1-2.7-.5-9.9 0-11.5 0-1.7 0-3.9.6-5-.5-1-1.1-.5-1.6.6-3.8.7-1.5.7-3.3 0-5.5h.5zm-13.2-26c1.1-1.3 3.3.5 4.4 1.7.5.5 1.6-.4 2.2 0 1 .7 1.6 2.4 2.2 2.4.5 0 2-1.5 2.8 0 .3.7.5 1.9.5 3.6h0l-16 1.9a11 11 0 01-2.1-3.7c-.3-1.2.5-.7.5-1.2 0-1.2 2.2-.6 1.7-1.8-.6-1.2 1.6 0 1.6-1.8s1.1 0 2.2-1.2z" stroke="#2A2A2A" stroke-width="1.3" fill="#4B4B4B" stroke-linecap="round" stroke-linejoin="round"/><path d="M59.3 95.9a3 3 0 012 .8c.5.5.7 1.2.7 2h0v.8a2.5 2.5 0 01-2.4 2.5c-1 0-1.6-.4-2-.9-.5-.5-.8-1.2-.8-2h0v-.8a2.5 2.5 0 012.5-2.4zM96.5 95a2.6 2.6 0 012.8 2.4h0V99a2.7 2.7 0 01-4.3 2.2c-.5-.4-.8-1-.9-1.8h0v-1.5a2.7 2.7 0 012.4-2.8z" stroke="#2A2A2A" fill="#F4D9BD"/><path d="M77.3 36.8c4-.1 11.3 5 14.4 7.6 3 2.6 5 13.3 6 24.4l.6 6.5h0v.8l.2 2.9h0l.1.8V81a293 293 0 01.7 15.3h0l-.6 1.5c-.5.7-1 1-1.4 1.1-.7.1-1.7 0-2.9-1.5C93.4 94 93 89 92.7 84c-.3-3.8-.5-7.8-1-11.4l-2-12-.1-.3v.2c0 2.2-.3 5.1-.5 8v.6c-.3 3.7-.6 7.4-.5 9.9 0 1-.3 2-1 2.8a8 8 0 01-2.6 2.2c-2.3 1.3-5.5 2-8.7 2-2.8 0-5.6-.6-7.6-1.8a5.8 5.8 0 01-2.8-5.2l-.3-8.8h0v-1l-.4-8.5v-.1.3l-.3 2.1v.5l-1.4 9.4c0 3-.2 6.4-.4 9.7h0v.8l-.1.7v.8l-.8 13a3 3 0 01-1.4 1.3c-.4.2-1 .4-1.5.3-.8-.1-1.7-.6-2.7-2-.2-.9-.3-2-.3-3.7h0V93c0-3.5.2-8.6.4-13.5h0v-1l.7-9.7c1.2-11.6 3-21 4.7-23 1.7-2 11.2-8.8 15.2-9z" stroke="#2A2A2A" stroke-width="1.2" fill="#12A4E2"/><path d="M66.8 53v1c-.1 5.7.4 9.6 1.7 11.6 2 3.2 9 3 8.4 9-.3 2.7-2.5 7.5-4.3 13.1-2.6 7.7-6.8 2.7-6.3-3.9l.2-5v-.4c0-4-.7-15.3-.7-18.3 0-2.3.4-4.6 1-7.1z" fill="#087DAE"/><circle stroke="#2A2A2A" fill="#FFF" cx="77.4" cy="58.7" r="1.2"/><path d="M71.2 40c1.6 11.6 3.6 17.3 6.4 17.3 2.8 0 4.6-5.7 5.7-17.3 0-.2-.2-.5-.5-.5-.2 0-.5.2-.5.4-1 11-2.8 16.5-4.7 16.5-2 0-4-5.6-5.4-16.5a.5.5 0 00-1 .2zM65.8 89c11 1.2 19 1.2 24 0a.5.5 0 10-.3-.9c-4.9 1-12.7 1-23.6 0-.3 0-.5.2-.5.5 0 .2.1.5.4.5z" fill="#2A2A2A" fill-rule="nonzero"/><path d="M65.8 91c11 1.1 19 1.1 24 0a.5.5 0 10-.3-1c-4.9 1.1-12.7 1.1-23.6 0-.3 0-.5.2-.5.5s.1.5.4.5z" fill="#2A2A2A" fill-rule="nonzero"/><path d="M72.7 19.8l8.5 2.3L82.3 39s-.6 2.5-2 4c-.9 1-2 1.6-3.3 1.6-4 0-5-5.6-5-5.6h0l.7-19.1z" stroke="#2A2A2A" stroke-width="1.2" fill="#C8926C"/><path d="M81.2 34l.3 5.1c-1 1-2.3 1.7-4.1 1.7-2.1 0-3.7-.8-4.7-1.8l.1-4 8.4-1z" fill="#A66F49" opacity=".6"/><path d="M139.2 1c3.4-.1 6 .4 8 1.6 2 1.3 3.3 3.2 4.1 6.2.7 2.5.8 5.3-.7 12.9-.9 4.3-2.8 7.4-5 9.2h1c.8 7 1.1 11 1.1 11.7l.2.8c.5 1.9 1.4 5.7 0 8.4-.4 1-1.2 1.8-2.3 2.3-1 .5-2.2.8-3.8.9-3.4.1-5.7-.9-7.1-3-1.3-2-1.7-5-1-9.1h0V31.6l2.4-.1a17 17 0 01-6.5-9.8c-.8-3-1.2-6-1.2-8.4 0-4 1-7 2.8-9 1.9-2.1 4.6-3.3 8-3.3zm49.1 19c.3-.2.7-.2 1-.1.6.9.4 1.9 0 3.6l-1 3.6c0 .4 0 .8-.2 1.2h0l2.6-5.3h0a1.5 1.5 0 012-.6c.3.1.5.4.6.8l-.1 1h0l-3.1 8.2a43 43 0 012.7-3.6c.2-.2.6-.3 1-.2.3 0 .6.2.8.5.2.2.3.4.3.8l-.4.7c-.5.6-1.9 2.9-4.2 6.8-1.2 2.4-2.3 3.8-3 4.2-.6.9-1 2.6-1.3 5h0l-7-1.5 2-5.5a3.9 3.9 0 01-2-2.4 30.8 30.8 0 01-1-7.6c.3-.6.5-.8.7-.8 1 .4 1.3 1 1.4 1.8 0 1 .4 1.8 1 2.5a6 6 0 001.1-2.8c-.1-4.3.3-7 .5-7.8 0-.5.2-.8.4-1 .3-.2.6-.3 1-.3a1.3 1.3 0 011 1.5v1a65.8 65.8 0 010 4.4l-.1.2h0l2.1-7h0c.3-.7.8-1.2 1.2-1.4z" stroke="#2A2A2A" stroke-width="1.1" fill="#E2BC95"/><path d="M194.2 29.4c.1.1.2.4 0 .8l-.2.2-2.4 3.8-.3.6c-.5.7-1 1.4-1.4 2.3l-.3.6c-1.2 2-2.1 3.2-2.8 3.5-.5.8-.9 2.4-1.2 4.8l-1.5-.3-.7-.7-2.8-2.5 1-2.8c2.2 1.4 3.8 1.7 4.7.7l.2-.1c1-1.2 3.6-4.8 7.7-11zm-59.6 6.3l10.5.4c.3 0 .9.1 1.6.4l.2 2.2v.3c-2.6.2-4.3 1-5.3 2.3l-.1.2c-1 1.3-3.2 2.5-6.8 3.4l-.7.2c0-.6 0-1.3.2-2v-7.3h.4zm4-27.7h2.7c4.7.3 7.1.5 7.3.7L150 10l1.2 1.2v.4c.2 2-.1 4.6-1 9-1.3-2-2-3.5-2.3-4.4-.3-1.8 1.5-2.2-1.8-3-3.1-.6-4.2 2-7.2 2.7l-.3.1c-3.2.7-7.5 5.2-7.9 6.3-.2.6 1-4.3-1-4.3h-.3c-.3-1.7-.4-3.4-.4-4.8 0-1.6.2-3 .5-4.4l9-1z" fill="#D0A06E"/><path d="M180 41a82.7 82.7 0 004 2.9c1 .4 1.5.5 2 .5s.7-.4.8-.5h0l.7-1.1.3 1.2a121 121 0 01-7 24.3c-1 2.2-2.2 3.9-3.3 4.8-.6.5-1.2.8-1.8.9-.6 0-1.2 0-1.8-.3-3.2-1.7-4.8-6-5-9.7 0-2.4.4-4.6 1.2-5.7.5-.7 1.1-1 1.8-1l1.3.6c2-4.9 4.3-10.3 6.5-16.2l.3-.7z" stroke="#2A2A2A" stroke-width="1.1" fill="#C4C4C4" stroke-linecap="round" stroke-linejoin="round"/><path d="M123.6 129.9a12 12 0 007.5-5.3c.1-.2 0-.5-.1-.6a.5.5 0 00-.7.1c-1.7 2.6-4 4.2-6.9 4.9a.5.5 0 00.2.9zM153.2 123c.8 4 3 6.3 6.9 6.9.2 0 .5-.2.5-.4 0-.3-.1-.5-.4-.5-3.4-.5-5.4-2.5-6-6.2a.5.5 0 10-1 .2z" fill="#2A2A2A" fill-rule="nonzero"/><ellipse stroke="#2A2A2A" stroke-width="1.1" fill="#F4D9BD" cx="117.1" cy="116.4" rx="4.8" ry="4.9"/><path d="M143.5 16.3c1.2-.6 2.2-.4 3 .5.2.2.5.3.7 0 .1 0 .2-.4 0-.6-1-1.3-2.5-1.5-4.1-.7-.3 0-.4.4-.3.6.2.2.4.3.7.2zM134 17.3c.7-1 1.7-1.2 3-.6.2 0 .5 0 .6-.2 0-.3 0-.5-.2-.7-1.7-.8-3.1-.5-4.2.9-.2.2-.1.5 0 .6.3.2.6.2.7 0z" fill="#2A2A2A" fill-rule="nonzero"/><path d="M135.2 38v2.6l5.5 11.6 6-13 4.7 4.3-5.9 45.4-12.4-.8-5.8-36.2 7.9-13.9z" stroke="#2A2A2A" stroke-width="1.1" fill="#FFF" stroke-linecap="round" stroke-linejoin="round"/><path d="M130 17.7c-2.5-.2-3.4.5-2.6 2.2.7 1.6 1.8 2.3 3.3 2M151.2 17.7c2.2-.2 3 .6 2.2 2.3-.7 1.7-1.6 2.4-2.6 1.8l.2-3.8" stroke="#2A2A2A" stroke-width="1.1" fill="#F4D9BD" stroke-linejoin="round"/><path d="M135.7 26.4l9.4-.8c-.8 3.2-2.4 4.6-4.9 4.3-2.5-.2-4-1.4-4.5-3.5z" fill="#FFF"/><path d="M131.8 39l10 42.6c3.5-11.5 5.5-19.1 6-22.9a1376.2 1376.2 0 012.5-18.9h.6a17.5 17.5 0 0111.8 6.3c.5.7.8 4.5.8 11.5h0v.9c0 7.2-.2 17.6-.7 31.2h0l-51.4-7.5c1.8-20.4 3.4-31.6 4.8-33.8 2-3 7.2-6.2 15.6-9.4h0z" stroke="#2A2A2A" stroke-width="1.1" fill="#C4C4C4" stroke-linecap="round" stroke-linejoin="round"/><path d="M160.8 117.6l.9-.2h-.2c-1 1-3.6 1.8-10.1 2.2 3.2-.5 6.6-1.2 9.4-2z" fill="#939393" opacity=".4"/><path d="M122.9 59.5v13.3a128 128 0 01-1.4 11.8c-1 7.8 0 7.9 1.1.2a807 807 0 001.3-12c.2-3.2.2-7.6 0-13.3a.5.5 0 10-1 0z" fill="#2A2A2A" fill-rule="nonzero"/><path d="M150.7 12.5l-.2 9-.1 1.7-.2 1.5-.2 1.4v.6l-.1.6-.1.9-.2.7v.7l-.2.6-.1.6-1.1 2.8c-1.2 2.3-2.5 3.8-4.8 4h-1.2 0l-.6.1c-2 0-4-.2-5.7-.8a5.5 5.5 0 01-3.1-2.3l-.1-.2-1-2.9V31l-.2-.6-.2-1-.1-.6-.1-.7-.1-.8-.2-.8-.1-1.2-.1-.9-.2-1.3v-1l-.2-1V21h0v-.3l1-.1.2 1 .1.3h0v.3l.2.5.2.6.1.5c.7 2 1.1 2.8 1.6 3.2.2.2.3.2.5.2.1 0 .3 0 .5-.2a14.5 14.5 0 0110.8-.5l1 .3c.3 0 .5-.2.7-.4.5-.4 1-1.2 1.3-2.3l.1-.3.3-1 .2-.8.1-.6.2-.9 1.4-7.9zm-5.9 16a14.7 14.7 0 00-8-.4l-.8.4.2.6c.2.4.6 1 1.1 1.5a4 4 0 002.7 1.2 5 5 0 003-1c1-.7 1.6-1.6 1.8-2.4zm-5-28h.4c6.1.2 8.3 1.8 10.7 6.1 2.5 4.4 2 9 1.8 9.2-.2.4-.5.6-1 .9-.2.2-.6.3-.7.8h-.1 0v-.7l-1-.1c.2-1.3.5-3.8 0-5l-.4-1.5L149 8c-.3.5-.4 1-.5 1.5-.3 1.3-.8 2-1.6 2.5-.9.6-2.2.9-3.7 1.2-3.1.5-7.5 1.3-12.5 6.3l-.4.4c-.2-.2-.4-.3-.5-.6l.1-1c.2-.3.4-.8 0-1.4-.3-.5-.6-.8-.8-.9-1.3-1-1.3-1.5-1.3-2.2 0-.9 0-2 .2-3 .2-1.6.5-3.1 1.1-4.2 1-1.6 2.4-3.3 4.6-4.5 1.7-1 3.9-1.6 6.5-1.5z" stroke="#2A2A2A" stroke-width="1.1" fill="#976D51" stroke-linecap="round" stroke-linejoin="round"/><path d="M131.8 37.3l.1.9a153 153 0 003.3 13.1 773 773 0 017.3 30.7h0l.2.9v6.6L126.8 52l2.2-1.8-2-.8-1.2-8.2zm15.3-.7l7.9 4.6-1 9.8h-1.5l.7.8-10.8 39v-9.7l1.3-9.2 1-6.5h0v-1l.1-.5.2-1 2.4-17.5c.5-4 .6-6.5.4-7.4l-.7-1.4h0z" stroke="#2A2A2A" stroke-width="1.1" fill="#7F7F7F" stroke-linecap="round" stroke-linejoin="round"/><path d="M132.5 35.4l3.9 3.8a99.7 99.7 0 01-3.5 5.9l-.4-.6c-.2-.5-.5-2.2-1-5.2h0l1-4zm15.8-.1l.9 4.1a34 34 0 00-.7 4.1c-.2.6-.4.6-.6.6-.4-.1-.7-.4-1-.8l-2.3-3.6h0l3.7-4.4z" stroke="#2A2A2A" stroke-width="1.1" fill="#FFF" stroke-linecap="round" stroke-linejoin="round"/><path d="M140.2 52.3c1.3 15.6 1.7 24.7 1.3 27.3 0 .3.1.6.4.6.3 0 .6-.1.7-.4.4-2.8 0-11.9-1.3-27.5a.5.5 0 10-1 0z" fill="#2A2A2A" fill-rule="nonzero"/><ellipse stroke="#2A2A2A" stroke-width="1.2" fill="#898989" stroke-linecap="round" stroke-linejoin="round" transform="rotate(17 173.2 40.8)" cx="173.2" cy="40.8" rx="7.2" ry="5.4"/><path d="M49.6 40.4a15.7 15.7 0 0114.7 17.5c-1 8.5-1.5 13.8-1.5 16.1 0 3.5 1.2 6.5 3.6 9H32.2c1.6-3.3 2.4-6.3 2.4-9l-.8-17.7a15 15 0 0115.8-15.9z" stroke="#2A2A2A" stroke-width="1.2" fill="#FCF2D0" stroke-linecap="round" stroke-linejoin="round"/><path d="M51.1 45.8c.6 3.8 3.6 6.1 9 6.9a130 130 0 001 29l.2 1-1.3.3H38.2V79.4c.4-5-.2-12.7-1.8-23.1 3.8-1.1 6.6-2.3 8.4-3.6 1.8-1.3 3.9-3.6 6.3-6.9z" fill="#DFD1A2"/><path d="M43.7 78.8c6.8 0 13 .3 19 1 6.2.6 11 4.5 14.4 11.8h0l2.6 39.9-49.2.6a119 119 0 01-1.6-24c-1.1-6.7-2.5-11.8-3.5-15.5-1-3.8-1.4-5.9-1-6.5 2.7-3.3 6.4-5.4 10.5-6h0z" stroke="#2A2A2A" stroke-width="1.2" fill="#344551"/><path d="M35.5 93.8a19 19 0 00-1.2 8.7c.6 3 5.2 8 10.8 9h.3c3.6.6 6.7 7.3 9.4 20.1H34.3l-6-11.5v-.1l1.2.1-.5-14.5c.5-4 1.3-6.6 2.3-7.6l4.2-4.2zm13.8-15c6.8 0 15.6 1.9 16.6 2.2-.1.2-4.6.3-7.8 2-3.5 1.9-6 5.4-9.1 5.4-3.5 0-6.1-3.7-9.4-5.8-2.3-1.5-6.2-1.5-6-1.7l15.7-2.1z" fill="#253038"/><rect stroke="#2A2A2A" stroke-width="1.2" fill="#E7CBAF" x="43.6" y="68.6" width="10.8" height="18" rx="5.4"/><path d="M53.8 74v4.1l-1 .2c-1.6.4-3.5 1-5 2s-2.4 2.4-2.5 4a4.8 4.8 0 01-1.1-3.1V74c0-1.8 1-3.4 2.5-4.2h4.6c1.5.8 2.5 2.4 2.5 4.2z" fill="#CFAF8D" opacity=".6"/><path d="M58.9 59.3c1.8 0 2.4 1.1 1.8 3.3-.9 3.3-1.5 2.1-3.6 1.8M38.8 59.6c-1.8 0-2.4 1.1-1.8 3.3.9 3.3 1.5 2.1 3.6 1.8" stroke="#2A2A2A" stroke-width="1.2" fill="#E7CBAF" stroke-linejoin="round"/><path d="M51.7 47.3l.5.9c1.1 1.7 4 3.6 6.8 4.1.7 1.3.5 14-1.4 17.8-1 2-2 3.7-3.5 4.9a8.2 8.2 0 01-5.1 1.4c-2.4 0-4.2-.7-5.6-1.8a12.5 12.5 0 01-3.7-5.5 41.5 41.5 0 01-1.5-11.8h0v-.6h.5c2.2-.4 4.3-.6 7.6-2.7a21 21 0 005.4-6.7z" stroke="#2A2A2A" stroke-width="1.2" fill="#E7CBAF"/><path d="M38.8 57v2c5.9-.6 10.2-3.2 12.9-7.8 2.5 1.6 4.9 2.7 7.3 3.3V53l-3.5-1.2c-1-.6-2.3-1.6-3.8-3.1a15 15 0 01-6 6.2c-2.5 1.6-4.9 2.2-6.9 2z" fill="#CFAF8D" opacity=".6"/><path d="M50.8 43.7c0 1.8.3 3 .9 3.9M36.4 56l2.1.3" stroke="#2A2A2A" stroke-width="1.2" stroke-linecap="round" stroke-linejoin="round"/><path d="M42.5 58.7c.5-.6 1.1-1 1.9-1.2.7-.2 1.5-.1 2.2.3M54.9 58.7c-.5-.6-1.1-1-1.9-1.2-.7-.2-1.5-.1-2.2.3" stroke="#2A2A2A" stroke-width=".9" stroke-linecap="round" stroke-linejoin="round"/><path d="M59.2 52.4h2.1" stroke="#2A2A2A" stroke-width="1.2" stroke-linecap="round" stroke-linejoin="round"/><path stroke="#2A2A2A" stroke-width="1.2" fill="#FFF" stroke-linecap="round" stroke-linejoin="round" d="M39.7 110.2h10.2l2.1 3-2.4 18.3H40l-2.4-18.3z"/><path d="M23.7 85.6c.4-.5 2.2-2.1 2.7-1.7.5.4-.7 2.5-1 3-1.7 2.1-3.2 4.2-4.8 6.6l-.7 1-3.7 6-1 1.5c-2.5 3.8-6.4 10.3-11.9 19.3-.6 1-1 2.9-.7 4.4.5 2 2.1 3.6 5.4 4.5H8.3c.6-.1 1.1-.6 1.7-1.6l.1-.2 4-8.8.1-.3 1.7-1.8c8.4-9 12-13.6 12.8-16.3.3-.6 1-1 1.6-.7.6.2 0 .7-.1 1.3-1.1 4.7-4 8.2-13 17.7l-1 1.2-.4.9-3.5 7.8v.1c-1.1 2-2.3 3-4 3l-.2.1H8c-4.4-1-7-3.3-7.6-6.4a9 9 0 011-6.2l4.4-7.3 7.6-12.3 1.1-1.7 3.7-5.7c1.8-2.8 3.7-5 5.6-7.4z" fill="#2A2A2A" fill-rule="nonzero"/><path d="M24.4 86.2c5.2-4.5 8-4.3 8.7.6.3 3-.8 7.9-3.2 14.8-1 3-4.7 7.8-14.7 18.4-3.5 7.2-4.1 11.4-7 11.4-8.8-2-7-8.8-6-10.7l5.1-8.4 7.5-11.9 1-1.4c2.1-3.5 4.7-7.9 8.6-12.8z" fill="#344551"/><path d="M28.8 108.1c0-4.2 1.1-7.7 3.1-10.7.8-1 1.9-2.1 3.3-3.3" stroke="#2A2A2A" stroke-width="1.2" stroke-linecap="round" stroke-linejoin="round"/><path d="M15.2 118.8c8.1-.1 14.4.4 19 1.3l.3.1.8.2.1.8c.5 3 .6 5.7.5 7.9v.8c-.3 2-.5 2.8-1.5 2.9h-26A8.4 8.4 0 011.3 120c.3-.5 1-.7 1.6-.4l-.7 1.1c-1.7 2.9.3 7.1 3.1 8.8a6 6 0 002.8.9h25.3v-.1-1.4c.2-1.7.1-3.8-.2-6.2v-.3h-.4c-4.1-.9-9.7-1.3-16.9-1.2h-.7a1.2 1.2 0 010-2.4z" fill="#2A2A2A" fill-rule="nonzero"/><path d="M2.3 120.7l12.9-.7c8.3-.1 14.6.4 19 1.4 1 6.7.2 10.2 0 10.2H8.4a7.2 7.2 0 01-6.1-11z" fill="#344551"/><path d="M34.6 121.4h10.5c.7 0 1.2.5 1.2 1.2v.3c0 .7-.5 1.2-1.2 1.2h-4.8H46a1.2 1.2 0 110 2.4h-6H45c.7 0 1.2.5 1.2 1.2h0c0 .7-.5 1.2-1.2 1.2h-4.8 3.6c.7 0 1.2.5 1.2 1.2h0c0 .5-.4.9-.9.9h-9.3 0a7.8 7.8 0 01-1.8-5.7c.2-2 .7-3.3 1.5-3.9z" stroke="#2A2A2A" stroke-width="1.2" fill="#E7CBAF" stroke-linecap="round" stroke-linejoin="round"/><path d="M168.2 40.6a13.5 13.5 0 00-12.5 16.7c1.6 6.6 2.2 11 1.8 13.2-.7 3.7 1.8 6 7.4 7h7.5c5.1-1.3 7.5-3.6 7.1-7-.3-2.1.4-7 2-14.6a12.8 12.8 0 00-13.3-15.3z" stroke="#2A2A2A" stroke-width="1.2" fill="#898989" stroke-linecap="round" stroke-linejoin="round"/><path d="M164.3 49c1 1.8-1.2 3.1-6.6 3.9.6 6.4.4 14.4 2.4 19.8.4 1.1 2.3 2.5 5.6 4l.4.2 4.8.3c5.9-.8 8.5-2.8 8.4-7v-.3c-.2-4.4.2-8.7 1.2-12.9-2.4 1.3-4.2.8-6-.5l-1.3-1c-2-1.3-5-3.5-8.9-6.5z" fill="#6B6B6B"/><path d="M173.3 78.4l8.8 1.3c4 .5 7.6 2.6 10.2 5.7l.2.3 1.4 1.8 1 1.1.8 1.2.8 1 .8 1.2.8 1 .7 1 .7 1 .7 1 .3.4h0l.3.5.7.9.5.8.3.4.9 1.4 1.1 1.8 2 3.3 3.6 5.7 5.3 8.8a7.8 7.8 0 01-6.3 11.8h-71.2l2.2-40.4c3.4-7.5 8.2-11.4 14.5-12 5.8-.7 12.1-1 18.9-1zm14.8 28.3V119l8.5-1-.3-.2-.7-.8-.3-.3h0l-.4-.4-.6-.6-.6-.7-.4-.4a30.8 30.8 0 01-4.6-6.7h0l-.6-1.2z" stroke="#2A2A2A" stroke-width="1.2" fill="#12A4E2"/><path d="M181.5 93.4l4.2 4.2c1.5 1.5 1.8 5.9 1.8 14.4v7.1l-.9 1-5.1.9v3.6c14.2 2.4 24.2 2.4 30 0l.3-.1c1.7-.7 3-.8 4-.4a7.2 7.2 0 01-7.2 7.1h-46.4c2.7-12.8 5.8-19.5 9.4-20.1h.3c5.6-1 10.2-6 10.8-9 .4-2 0-4.9-1.2-8.7zm-14.1-14.8h.3c4.4 0 9.6.7 15.7 2-3 .5-5 1-5.8 1.6-4.5 3-6.4 5.8-9.6 5.8-3.7 0-6-3.5-9.7-5.6-2.3-1.3-7.1-1.7-7.2-1.8 1-.3 10-2 16.6-2z" fill="#087DAE"/><rect stroke="#2A2A2A" stroke-width="1.2" fill="#A68768" transform="matrix(-1 0 0 1 336.4 0)" x="162.8" y="68.4" width="10.8" height="18" rx="5.4"/><path d="M163.4 73.8v4.1l1 .2c1.6.4 3.5 1 5 2s2.4 2.4 2.5 4c.7-.9 1.1-2 1.1-3.1v-7.2c0-1.8-1-3.4-2.5-4.2H166a4.8 4.8 0 00-2.5 4.2z" fill="#795E43" opacity=".6"/><path d="M158.1 59c-1.9 0-2.5 1.2-1.9 3.6 1 3.5 1.6 2.2 3.8 1.9" stroke="#2A2A2A" stroke-width="1.2" fill="#A68768" stroke-linejoin="round"/><path d="M163.6 49l-.6.6c-1.9 1.8-3.3 2.4-5 2.4l-.5.4-.1 1.6c0 4.3.5 12.6 2 15.4 1 2 2 3.7 3.4 4.8 1.3.9 2.9 1.4 5.2 1.4 2.3 0 4.1-.7 5.6-1.8 1.6-1.3 2.8-3.2 3.6-5.3.8-2 1.2-4.9 1.4-7.3 0-.7-.1-1-.2-1 0 0-.2-.2-.7-.2-.7 1-1.2 2.1-2.1 2.5-.6.2-1.3 0-2.2-.5a81.2 81.2 0 01-9.8-13z" stroke="#2A2A2A" stroke-width="1.2" fill="#A68768"/><path d="M163.5 50c-2.1 2-3.6 2.5-5.4 2.5V55c1.2-.3 3.6-1.2 4.5-3 5.7 6.7 6 11.5 11.7 12.8 1.2.3 2.3.2 3.3-.3l.3-2.8V61c.3-2.3-.6 4-4.8 1.4-2.4-1.8-8.7-11-9.6-12.4z" fill="#795E43" opacity=".6"/><path d="M162.5 58.5c.5-.6 1.1-1 1.9-1.2.7-.2 1.5-.1 2.2.3" stroke="#2A2A2A" stroke-width=".9" stroke-linecap="round" stroke-linejoin="round"/><path d="M188 108c0-3.5-1-7-2.8-10.6A11 11 0 00182 94M149 101c.4-1.7 1-3 1.8-4 .7-.9 1.8-1.9 3.2-3M192.7 118.6a84 84 0 00-7.4 1.2c-.7.2-1.8.9-3.3 2 .8 0 1.2 1 1.4 2.9.2 1.9-.3 4-1.4 6.3" stroke="#2A2A2A" stroke-width="1.2" stroke-linecap="round" stroke-linejoin="round"/><path d="M182.5 121H172c-.7 0-1.2.5-1.2 1.2v.4c0 .7.5 1.2 1.2 1.2h4.7-5.6c-.7 0-1.2.5-1.2 1.2v.1c0 .7.5 1.2 1.2 1.2h6-5.1c-.7 0-1.2.5-1.2 1.2v.1c0 .7.5 1.2 1.2 1.2h4.7-3.5c-.7 0-1.2.6-1.2 1.3h0c0 .5.4.9 1 .9h9c1.5-1.9 2-3.9 1.9-6-.2-2-.7-3.4-1.5-4z" stroke="#2A2A2A" stroke-width="1.2" fill="#A68768" stroke-linecap="round" stroke-linejoin="round"/><path d="M93.7 73.6c6.8 0 13 .3 19 1 6 .5 10.8 4.4 14.2 11.4l.2.4 2.8 45.4-71.5.6c-1.4 0-2.8-.4-4-1.1a7.3 7.3 0 01-3.3-4.6c-.5-1.9-.3-3.9.5-5.8l.1-.3 5.3-11.2 1-2.2 1.7-3.4 1-2 1-2.1.5-1 .5-1 .5-.8.4-.8.3-.5.3-.6.8-1.2.5-.8.7-1 .3-.4h0l.3-.5.7-1 .7-.9.7-1 .8-1 .8-1.1.8-1.1.9-1.2.9-1.1 1.4-1.8c2.5-3.2 6-5.3 10-6h.4l8.8-1.3zM78.9 102l-.2.3-.4.9-.2.4A34 34 0 0176 107c-.3.3-.5 1-.9 1.7h0l-.2.6-1 2.5-.4.7-.3.8-.2.5c-.8 1.8-1.7 3.5-2.7 4.8h0l8.6 1V102z" stroke="#2A2A2A" stroke-width="1.2" fill="#FFF"/><path d="M85.5 88.6c-1.2 3.8-1.6 6.7-1.2 8.7.6 3 5.4 8.1 11.1 9 3.6.6 6.8 9 9.5 25.5H58.4c-1.3 0-2.6-.4-3.7-1a7 7 0 01-3.3-6.1c1-.4 2.2-.2 3.8.4l.3.1c5.8 2.4 15.8 2.4 30 0v-3.6l-5.1-.9-.1-1.8c-1.3-15.5-1-24.2 1-26.1l4.2-4.2zm8.2-14.4c6.8 0 13 .3 18.9.9 1.1.1 2.3.4 3.3.7-.3.3-1 .5-1.9.5a16 16 0 00-8 3.3l-.8.6c-2.7 1.8-5.3 3.6-8.3 3.6-2.4 0-8-5.4-5.5-9.1v-.2l2.3-.3z" fill="#ECECEC"/><path d="M89 37h.2c.9 0 2.5.6 6.8.6 3 0 4.8.2 6 .5 2 .5 2.5 1.2 2.7 1.8 1.6.4 3.4 1.5 4.8 3.5 1 1.5 1.8 3.4 1.8 5.6 0 2.4-.1 3.9-.4 4.5-1.3.6-1.7.3-2.1-.7-.1-.2-.6-.3-1.2-.4l-4-.2c-3.6 0-8.7.5-15.5 1.3-1.6-1-2.3-2.4-2.3-4.4 0-1.8.6-4.1 1.7-7a10.2 10.2 0 001-5.1h.7z" stroke="#2A2A2A" stroke-width="1.2" fill="#EDC001"/><rect stroke="#2A2A2A" stroke-width="1.2" fill="#E7CBAF" x="93.6" y="63.4" width="10.8" height="18" rx="5.4"/><path d="M103.8 68.8v4.1l-1 .2c-1.6.4-3.5 1-5 2s-2.4 2.4-2.5 4a4.8 4.8 0 01-1.1-3.1v-7.2c0-1.8 1-3.4 2.5-4.2h4.6c1.5.8 2.5 2.4 2.5 4.2z" fill="#CFAF8D" opacity=".6"/><path d="M108.9 54.1c1.8 0 2.4 1.1 1.8 3.3-.9 3.3-1.5 2.1-3.6 1.8M88.8 54.4c-1.8 0-2.4 1.1-1.8 3.3.9 3.3 1.5 2.1 3.6 1.8" stroke="#2A2A2A" stroke-width="1.2" fill="#E7CBAF" stroke-linejoin="round"/><path d="M92.1 44.3c1-.6 2-.7 2.9-.6 1 .2 2 .9 3 1.5.8.5 1.5 1 2.3 1.1 1 .2 2.2.2 3.3.1 1.6 0 3.2 0 4.2.5 1 .4 1.6 1.2 1.7 2.6.2 1.3 0 11.8-1.9 15.4-1 2-2 3.7-3.5 4.9a8.2 8.2 0 01-5.1 1.4c-2.4 0-4.2-.7-5.6-1.8a12.5 12.5 0 01-3.7-5.5 41.5 41.5 0 01-1.5-11.8c0-2 0-3.4.8-4.9.5-1 1.5-2 3.1-3z" stroke="#2A2A2A" stroke-width="1.2" fill="#E7CBAF"/><path d="M100.2 46.9c3.5.6 8.1-1 8.7 2.4-1.8 0-5 0-8.1-1-2.6-1-5-2.3-7.2-2-2.2.3-3.7 1-4.5 2 .4-1.2 1.3-2.4 3.3-3.5 3.3-1.8 5.4 1.7 7.8 2.1z" fill="#CFAF8D" opacity=".6"/><path d="M92.5 53.5c.5-.6 1.1-1 1.9-1.2.7-.2 1.5-.1 2.2.3M104.9 53.5c-.5-.6-1.1-1-1.9-1.2-.7-.2-1.5-.1-2.2.3" stroke="#2A2A2A" stroke-width=".9" stroke-linecap="round" stroke-linejoin="round"/><path d="M78.8 102.2c.5-4.3 1.5-7.6 3.1-10M78.8 119.7l4 .6c.8.2 1.7.7 2.7 1.3-.8 0-1.3 1-1.5 3-.2 2 .3 4.2 1.5 6.6" stroke="#2A2A2A" stroke-width="1.2" stroke-linecap="round" stroke-linejoin="round"/><path d="M84.9 122.2c6.4 0 10.8.7 13.2 2.1 2.4 1.4 3.3 2.3 2.7 2.7l-.3 5.2H84.9c-2.4-2.3-3.2-4.5-2.4-6.7.8-2.2 1.6-3.3 2.4-3.3z" stroke="#2A2A2A" stroke-width="1.2" fill="#E7CBAF" stroke-linecap="round" stroke-linejoin="round"/><path d="M98.4 128.9a10.5 10.5 0 00-5.1-3M96.9 130.7a10.7 10.7 0 00-6-3M93.6 131.6a7.7 7.7 0 00-3.9-1.8" stroke="#2A2A2A" stroke-width="1.2" stroke-linecap="round" stroke-linejoin="round"/><rect stroke="#2A2A2A" stroke-width="1.2" fill="#FFF" x="92.4" y="77.4" width="66.2" height="44.2" rx="5.4"/><path d="M140.7 121.4l-1.4 7.2h-27l1.4-7.2h27z" stroke="#2A2A2A" stroke-width="1.2" fill="#EEE"/><path d="M141.7 121.4l-1.4 7.2h-25l1.4-7.2h25z" stroke="#2A2A2A" stroke-width="1.2" fill="#D7D7D7"/><path fill="#BBB" d="M117 124.9l.5-2.9H141l-.5 3z"/><rect stroke="#2A2A2A" stroke-width="1.2" fill="#FFF" x="95.4" y="77.4" width="66.2" height="44.2" rx="5.4"/><path d="M133 128.4a3.6 3.6 0 013.6 4h0l-38.2.2a3.6 3.6 0 013.6-4.2h0z" stroke="#2A2A2A" stroke-width="1.2" fill="#EEE"/><path d="M143 128.4a3.6 3.6 0 013.6 4h0l-35.2.2a3.6 3.6 0 013.6-4.2h0z" stroke="#2A2A2A" stroke-width="1.2" fill="#D7D7D7"/><circle fill="#D8D8D8" opacity=".3" cx="128" cy="100" r="4"/><path d="M65.4 22.7c.3 0 .6 0 1 .3.4.4.9 1 1.3 2.2h0l.8 5.1c-2-.8-3.2-1.7-3.6-2.4a6 6 0 01-.9-2.4c-.2-1 0-2 .4-2.3.3-.3.6-.4 1-.5zM89.1 22.7c-.3 0-.7 0-1 .3-.5.4-1 1-1.4 2.2h0l-.7 5.1c2-.8 3.1-1.7 3.6-2.4a6 6 0 00.9-2.4c.1-1-.1-2-.5-2.3-.3-.3-.6-.4-.9-.5z" stroke="#2A2A2A" stroke-width="1.3" fill="#C8926C"/><path d="M77 10.7c3 0 5.2.2 6.8 1.1 1.5.9 2.6 2.4 3.3 5 .7 2.1 1.1 7.5 0 12.3-.6 2.7-1.8 5.3-3.5 7.2a8.5 8.5 0 01-6 2.8c-2.4.1-4.6-.7-6.3-2.4-1.7-1.6-3-4-3.8-7-.7-2.7-1-5.3-1-7.4 0-3.5 1-6.3 2.8-8.3 1.9-2 4.5-3.2 7.6-3.3z" stroke="#2A2A2A" stroke-width="1.3" fill="#C8926C"/><path d="M67 21.6c2-.7 3.2-1.5 4-2.2 1-1.1 2.7-.5 4.3 0 1.7.6 3.3 0 5 1.1 1.6 1.1 5 1.7 6 1.1.8-.4 1.3-.7 1.7-1.1l-.6-3.3-8.2-1.6-6-.6-3.4 1.1-1 1.7c-1 .6-1.5 1.1-1.7 1.6-.2.5-.2 1.2 0 2.2z" fill="#A66F49" opacity=".6"/><path d="M88.3 30c.7 0 1.3.6 1.3 1.3 0 .7-.6 1.3-1.3 1.3-.7 0-1.3-.6-1.3-1.3 0-.7.6-1.3 1.3-1.3zm-21 0c.7 0 1.3.6 1.3 1.3 0 .7-.6 1.3-1.3 1.3-.7 0-1.3-.6-1.3-1.3 0-.7.6-1.3 1.3-1.3z" stroke="#2A2A2A" stroke-width="1.1" fill="#FFF"/><path d="M71.8 23.4c.4-.6.9-1 1.5-1.1.7-.2 1.3-.1 2 .3M82.8 23c-.5-.5-1-.7-1.8-.8-.7-.2-1.3 0-2 .4" stroke="#2A2A2A" stroke-linecap="round" stroke-linejoin="round"/><path d="M66 22.2c.5 1.6.5-2.2 2.2-2.2.3 0 1.1-.8 1.6-1.1.5-.4.7-1.6 1.1-1.7 1.3-.2 3-.6 3.9 0 1.6 1.1 1.6.6 3.3.6 1.6 0 .6 0 2.2 1h1.6c1.7 1.2 2.2 2.3 3.3.6.5-.7 1.1-.8 1.7.6.8 1.8 1.4 5.3 1 4.4 0-.3.8-3.3.6-6.1 0-1.9-1-3.7-1.6-4.4-2-2-3.3-2.7-9.4-2.7-4 0-6.8.3-8.8 1.6-3.2 2.2-3 8.5-2.7 9.4z" stroke="#2A2A2A" stroke-width="1.3" fill="#4B4B4B" stroke-linecap="round" stroke-linejoin="round"/><path d="M69.8 10.1c3.2-.6 5.4-.2 6.5 1l.6.8.2.4c-1 1-1.5 1-2 1h-2c-.8-.1-1.3-.4-1.6-.8h0zm9 1c1.1-1.2 3.3-1.6 6.5-1h0l-1.7 2.4c-.3.4-.8.7-1.6.8h-3c-1-1.5-.7-1.8-.3-2.2z" stroke="#2A2A2A" stroke-width="1.3" fill="#EDC001"/><circle stroke="#2A2A2A" stroke-width="1.3" fill="#EDC001" cx="77.5" cy="11.6" r="1.8"/><path d="M45.4 59.6a1.2 1.2 0 110 2.4 1.2 1.2 0 010-2.4zm6.6 0a1.2 1.2 0 110 2.4 1.2 1.2 0 010-2.4zm119 .4a1 1 0 110 2 1 1 0 010-2zm-6 0a1 1 0 110 2 1 1 0 010-2zm-69.6-5.6a1.2 1.2 0 110 2.4 1.2 1.2 0 010-2.4zm6.6 0a1.2 1.2 0 110 2.4 1.2 1.2 0 010-2.4zM74.1 24.8c.6 0 1.1.5 1.1 1 0 .7-.5 1.1-1 1.1a1 1 0 01-1.2-1c0-.6.5-1.1 1.1-1.1zm6.6 0c.6 0 1 .5 1 1 0 .7-.4 1.1-1 1.1a1 1 0 01-1.1-1c0-.6.5-1.1 1-1.1zm56.1-6.4a1 1 0 110 2.2 1 1 0 010-2.2zm7.2 0a1 1 0 110 2.2 1 1 0 010-2.2z" fill="#2A2A2A"/><path d="M165 69l7 .5c-.4 1.5-1.5 2.3-3.4 2.5-1.8.2-3-.8-3.6-3zm-112.1-.4c-.6 2.4-1.9 3.5-3.9 3.3-2-.2-3.2-1.1-3.6-2.7l7.5-.6zm50-5.2c-.6 2.4-1.9 3.5-3.9 3.3-2-.2-3.2-1.1-3.6-2.7l7.5-.6zm-21.4-32c-.7 2.5-2 3.7-4.1 3.5-2.1-.2-3.4-1.2-3.8-2.9l7.9-.6z" fill="#FFF"/></g></svg>